<?xml version="1.0" encoding="utf-8"?>
<!-- Generator: Adobe Illustrator 19.1.0, SVG Export Plug-In . SVG Version: 6.00 Build 0)  -->
<svg version="1.1" id="Layer_1" xmlns="http://www.w3.org/2000/svg" xmlns:xlink="http://www.w3.org/1999/xlink" x="0px" y="0px"
	 viewBox="0 0 198.4 198.4" style="enable-background:new 0 0 198.4 198.4;" xml:space="preserve">
<style type="text/css">
	.st0{fill:#009D4E;}
	.st1{fill:#FFFFFF;}
</style>
<rect x="0" y="0" class="st0" width="198.4" height="198.4"/>
<g>
	<g>
		<g>
			<path class="st1" d="M72.8,126.5h-1.5l-4.5-12.9l-4.3,12.9h-1.5l-6.7-20.7h3.8l3.8,12.3l4.1-12.3h1.6l4.1,12.3l3.8-12.3h3.8
				L72.8,126.5z"/>
			<path class="st1" d="M84.9,109.1v4.8h6.7v3.1h-6.7v6.1h9.2v3.2H81.3v-20.4h13v3.2H84.9z"/>
			<path class="st1" d="M97.2,126.3v-20.4h3.6v17.2h9.2v3.2H97.2z"/>
			<path class="st1" d="M111.7,125.1l1.3-3.2c1.4,1,2.8,1.5,4.2,1.5c2.1,0,3.2-0.7,3.2-2.2c0-0.7-0.3-1.4-0.8-2s-1.5-1.3-3.1-2.1
				s-2.6-1.4-3.2-1.9c-0.5-0.5-1-1.1-1.3-1.8c-0.3-0.7-0.4-1.5-0.4-2.3c0-1.6,0.6-2.9,1.7-3.9c1.2-1,2.6-1.6,4.4-1.6
				c2.4,0,4.1,0.4,5.2,1.3L122,110c-1.3-0.9-2.6-1.4-4-1.4c-0.8,0-1.5,0.2-1.9,0.7c-0.5,0.4-0.7,1-0.7,1.7c0,1.2,1.3,2.4,3.9,3.6
				c1.4,0.7,2.3,1.3,3,1.8s1.1,1.2,1.4,2s0.5,1.6,0.5,2.5c0,1.7-0.7,3-2,4.1c-1.3,1.1-3.1,1.6-5.2,1.6
				C115,126.6,113.3,126.1,111.7,125.1z"/>
			<path class="st1" d="M138.7,126.3v-9.2h-8.1v9.2H127v-20.4h3.6v8h8.1v-8h3.6v20.4H138.7z"/>
		</g>
	</g>
	<g>
		<path class="st1" d="M60.5,132.8v10.5h-1.6v-10.5h-3.8v-1.5h9.4v1.5H60.5z"/>
		<path class="st1" d="M73.2,143.4l-3.2-5.1c-0.4,0-0.9,0-1.7-0.1v5.2h-1.6v-12c0.1,0,0.5,0,1.3-0.1c0.8,0,1.4-0.1,1.7-0.1
			c2.9,0,4.3,1.1,4.3,3.4c0,0.8-0.2,1.4-0.7,2c-0.5,0.6-1,1-1.7,1.1l3.5,5.5H73.2z M68.3,132.8v3.9c0.4,0.1,0.8,0.1,1.1,0.1
			c1,0,1.7-0.2,2.1-0.5s0.7-0.9,0.7-1.7c0-0.7-0.2-1.2-0.7-1.4c-0.5-0.3-1.2-0.4-2.3-0.4C69.1,132.8,68.7,132.8,68.3,132.8z"/>
		<path class="st1" d="M77.3,143.4v-12h1.6v12H77.3z"/>
		<path class="st1" d="M89.1,143.4l-0.8-2.5h-4.5l-0.9,2.5h-1.8l4.9-12.2h0.4l4.5,12.2H89.1z M86.1,134.3l-1.9,5.3h3.6L86.1,134.3z"
			/>
		<path class="st1" d="M95.6,132.8v10.5H94v-10.5h-3.8v-1.5h9.4v1.5H95.6z"/>
		<path class="st1" d="M108.5,143.4v-5.8h-5.2v5.8h-1.6v-12h1.6v4.8h5.2v-4.8h1.6v12H108.5z"/>
		<path class="st1" d="M113.3,143.4v-12h1.6v10.5h5.4v1.5H113.3z"/>
		<path class="st1" d="M121.8,137.3c0-1.7,0.4-3.2,1.3-4.4c0.9-1.2,2-1.8,3.5-1.8c1.7,0,2.9,0.5,3.8,1.6c0.9,1.1,1.3,2.6,1.3,4.5
			c0,2-0.4,3.5-1.3,4.6c-0.9,1.1-2.2,1.7-3.8,1.7c-1.5,0-2.7-0.6-3.5-1.8C122.3,140.6,121.8,139.1,121.8,137.3z M123.6,137.3
			c0,1.4,0.3,2.5,0.8,3.4c0.5,0.9,1.3,1.4,2.3,1.4c1.1,0,2-0.4,2.6-1.3c0.6-0.8,0.9-2,0.9-3.6c0-3.1-1.1-4.6-3.4-4.6
			c-1,0-1.8,0.4-2.3,1.2C123.8,134.7,123.6,135.8,123.6,137.3z"/>
		<path class="st1" d="M142.1,143.5l-6.2-8.8v8.6h-1.6v-12h0.7l6,8.3v-8.3h1.6v12.2H142.1z"/>
	</g>
	<g>
		<g>
			<path class="st1" d="M68.3,149.6l-1.4,2.8c-0.7-0.7-1.9-1.1-3.6-1.1c-1.6,0-2.9,0.7-3.9,2c-1,1.3-1.5,3-1.5,5
				c0,2,0.5,3.6,1.4,4.8c0.9,1.2,2.2,1.8,3.7,1.8c1.8,0,3.2-0.6,4.2-1.9l1.6,2.7c-1.4,1.5-3.4,2.2-6,2.2c-2.6,0-4.7-0.9-6.1-2.6
				c-1.5-1.7-2.2-4.1-2.2-7.1c0-2.8,0.8-5.1,2.4-7c1.6-1.9,3.7-2.8,6.2-2.8C65.3,148.3,67,148.7,68.3,149.6z"/>
			<path class="st1" d="M80.7,159.7v7.7h-3.3v-7.7l-6.4-11.1h3.6l4.5,8l4.5-8H87L80.7,159.7z"/>
			<path class="st1" d="M107.9,167.5h-3.2l-2-10.2l-3.8,10.4h-1.2l-3.8-10.4l-2,10.2h-3.2l3.8-18.9h1.8l4.1,12.7l4-12.7h1.8
				L107.9,167.5z"/>
			<path class="st1" d="M121.9,167.4l-5-7.8c-0.5,0-1.2,0-2.1-0.1v7.9h-3.5v-18.9c0.2,0,0.9,0,2.2-0.1s2.3-0.1,3.1-0.1
				c4.8,0,7.2,1.9,7.2,5.6c0,1.1-0.3,2.1-1,3.1c-0.7,0.9-1.5,1.6-2.5,1.9l5.6,8.5H121.9z M114.7,151.5v5.2c0.6,0.1,1.1,0.1,1.4,0.1
				c1.4,0,2.4-0.2,3.1-0.6c0.6-0.4,1-1.2,1-2.3c0-0.9-0.3-1.6-1-1.9c-0.7-0.4-1.8-0.6-3.3-0.6C115.5,151.4,115.1,151.4,114.7,151.5z
				"/>
			<path class="st1" d="M128.7,148.6h3.3v12.8c0,1,0.3,1.8,0.9,2.5c0.6,0.6,1.5,1,2.5,1c1.2,0,2.2-0.3,2.8-0.9c0.7-0.6,1-1.5,1-2.6
				v-12.7h3.3v13c0,1.9-0.6,3.5-2,4.6c-1.3,1.1-3,1.6-5.2,1.6c-2.2,0-3.9-0.5-5.1-1.6c-1.2-1.1-1.8-2.6-1.8-4.6V148.6z"/>
		</g>
	</g>
</g>
<g>
	
		<ellipse transform="matrix(0.9958 -9.125340e-02 9.125340e-02 0.9958 -3.1603 11.9064)" class="st1" cx="128.6" cy="40.5" rx="6.5" ry="5.7"/>
	<g>
		<path class="st1" d="M72,90C72,90,72,90,72,90C72,90,72,90,72,90C72,90,72,90,72,90z"/>
		<path class="st1" d="M71,89.2c0.4-0.2,0.9-0.3,1.3-0.4c2.3-0.8,4.5-1.7,6.4-2.6c0.3-0.1,0.5-0.3,0.8-0.4
			c-4.9-2.9-10.1-6.2-13.8-10.5c-0.5-0.6-0.9-1.2-1.1-1.8c-0.7-2.3,2-3.7,3.8-4.4c3.6-1.5,7.6-2,11.5-2.6c2.6-0.4,4.8-0.7,6.2-0.8
			c-4.4-0.5-8.8-0.6-13.2-0.3c-6.4,0.5-16.6,2.1-13,10.7c1.8,4.2,5,8.2,8.5,11.2C68.7,87.3,69.8,88.3,71,89.2z"/>
	</g>
	<path class="st1" d="M92.6,77.5c0.6-0.7,1.2-1.7,0.4-2.6c-0.4-0.4-1-0.7-1.5-0.9c-1.6-0.7-3.4-0.8-5-0.2c-3.7,1.2-5.7,5.2-4.5,8.9
		c0.2,0.5,0.4,1,0.7,1.4c1.9-1,3.6-1.9,5.1-2.9c1-0.6,2-1.3,2.9-2.1C91.3,78.8,92,78.2,92.6,77.5z"/>
	<path class="st1" d="M136.1,73.4c-1.4-4.4-6.2-6.6-10-8.4c-2-0.9-4.6-1.7-5.5,1c-0.4,1.2-0.7,2.4-1.1,3.6
		c-4,12.6-15.9,20.3-21.3,23.2c6.1-2.1,16.9-7.1,25.6-18.3c0.1-0.2,0.3-0.4,0.4-0.5c0.2-0.2,0.4-0.5,0.5-0.8
		c0.6-0.8,1.2-1.6,1.7-2.5c1.8,0.4,3.5,1.1,5.1,2.3c4.3,3.3-5.8,10.2-7.3,11.4c-2.8,2.2-4.8,3.4-4.8,3.4s2.2-0.8,5.3-2.3
		c1.6-0.8,3.4-1.7,5.3-3c0.9-0.6,1.9-1.3,2.9-2.2c0.9-0.8,1.9-1.8,2.7-3.2C136,76.5,136.5,74.9,136.1,73.4z"/>
	<path class="st1" d="M126.8,54.3c-1,0.2-2,0.3-3,0.2c-1.2-0.1-2.2-0.3-3.2-0.9c-3.5-2.1-4.1-5.7-4.3-9.3c0,0,0-0.8,0-0.8
		c0-1.2,0-2.6-0.5-3.7c-1.5-3.2-7.9-1.9-10.5-1.5c-8.1,1.4-16.2,3.6-23.5,7.3c-3.3,1.7-6.8,3.5-9.3,6.4c-1.5,1.7-2.1,4.9,1.1,5.2
		c8,0.7,16.4,1.5,23.7,5c4.8,2.3,7,5.4,6.5,9.3c-0.4,3-2.1,5.5-3.6,7.7l-0.2,0.3c-1.4,2-3.2,3.9-5.5,5.7c-2.3,1.8-5,3.5-8.2,5.2
		c6.3-1.8,12.9-4.7,17.2-9.5l0.3-0.3c0.1-0.2,0.3-0.4,0.4-0.5l0.2-0.2c0.8-1,1.3-1.8,1.8-2.6c2.7-4.7,3-9.6,0.9-13.5
		c-1.9-3.3-4.6-5.2-7-6.7c-5.1-3-10-4.4-14.6-5.6c-1.1-0.3-2.1-0.5-3-0.7l-2.8-0.7c0,0,6.7-5.7,27.9-6.8c0,0,2.4-0.2,2.6,2.1
		c0.6,5.8,5.1,10.1,10,11.4c0,0,0,0,0,0c0.4,0.1,0.9,0.2,1.4,0.3c0.1,0,0.1,0,0.2,0c3.9,0.4,8.1-1.4,11.3-3.2
		c1.8-1.1,3.4-2.2,4.6-3.1C135.8,51.6,131,53.7,126.8,54.3z"/>
</g>
</svg>
